<?xml version="1.0" standalone="no"?>
<!DOCTYPE svg PUBLIC "-//W3C//DTD SVG 20010904//EN"
 "http://www.w3.org/TR/2001/REC-SVG-20010904/DTD/svg10.dtd">
<svg version="1.0" xmlns="http://www.w3.org/2000/svg"
 width="296.000000pt" height="296.000000pt" viewBox="0 0 296.000000 296.000000"
 preserveAspectRatio="xMidYMid meet">

<g transform="translate(0.000000,296.000000) scale(0.100000,-0.100000)"
fill="#000000" stroke="none">
<path d="M721 2464 c-282 -76 -468 -260 -517 -514 -43 -218 28 -489 193 -739
83 -126 422 -460 811 -801 189 -165 212 -180 276 -180 32 0 62 7 81 19 94 57
730 647 871 806 132 149 231 316 283 475 138 429 -25 775 -434 921 -86 31
-257 37 -360 14 -140 -31 -327 -148 -419 -261 l-26 -32 -68 70 c-107 111 -256
198 -391 227 -72 15 -235 13 -300 -5z m1669 -283 c117 -62 133 -264 36 -466
-85 -180 -230 -309 -361 -322 -67 -7 -95 0 -135 33 -57 49 -75 97 -74 204 1
81 5 107 32 179 65 173 202 329 330 376 54 20 131 18 172 -4z"/>
</g>
</svg>
